<svg height="512pt" viewBox="0 0 512 512.002" width="512pt" xmlns="http://www.w3.org/2000/svg"><path d="m512 256c0 141.386719-114.613281 256-256 256-141.382812 0-256-114.613281-256-256s114.617188-256 256-256c141.386719 0 256 114.613281 256 256zm0 0" fill="#8f95e6"/><path d="m291.117188 255.957031h-70.5c-23.261719 0-42.699219-17.699219-44.875-40.859375l-6.164063-65.691406h172.578125l-6.167969 65.691406c-2.171875 23.160156-21.609375 40.859375-44.871093 40.859375zm0 0" fill="#339"/><path d="m256 492c-138.03125 0-250.53125-109.253906-255.785156-246-.1289065 3.320312-.214844 6.648438-.214844 10 0 141.382812 114.617188 256 256 256 141.386719 0 256-114.617188 256-256 0-3.351562-.082031-6.679688-.210938-10-5.257812 136.746094-117.753906 246-255.789062 246zm0 0" fill="#6770e6"/><path d="m256 20c138.035156 0 250.53125 109.253906 255.789062 246 .128907-3.320312.210938-6.648438.210938-10 0-141.382812-114.613281-256-256-256-141.382812 0-256 114.617188-256 256 0 3.351562.0859375 6.679688.214844 10 5.253906-136.746094 117.753906-246 255.785156-246zm0 0" fill="#9fa5ff"/><path d="m369.894531 327.824219-58.023437-19.066407h-111.75l-58.167969 19.078126c-19.167969 6.289062-32.128906 24.179687-32.128906 44.355468v93.980469c40.546875 28.253906 89.65625 45.070313 142.65625 45.785156h7.039062c52.925781-.714843 101.96875-17.484375 142.484375-45.664062v-94.121094c0-20.167969-12.949218-38.054687-32.109375-44.347656zm0 0" fill="#ff8354"/><path d="m402.003906 446.292969c-41.410156 28.808593-91.730468 45.707031-146.003906 45.707031-54.347656 0-104.734375-16.945312-146.175781-45.828125v20s.003906.003906.007812.003906c5.0625 3.527344 10.257813 6.875 15.578125 10.039063.007813.003906.015625.007812.023438.015625 5.320312 3.160156 10.761718 6.132812 16.320312 8.90625.007813.007812.019532.011719.03125.015625 5.558594 2.777344 11.230469 5.355468 17.007813 7.730468.011719.003907.019531.007813.027343.011719 28.941407 11.882813 60.539063 18.617188 93.660157 19.066407h7.042969c26.460937-.359376 51.953124-4.730469 75.894531-12.53125 5.980469-1.953126 11.863281-4.117188 17.644531-6.484376.007812 0 .015625-.003906.023438-.007812 5.773437-2.371094 11.441406-4.945312 16.996093-7.710938.007813-.003906.015625-.007812.019531-.011718 5.554688-2.769532 10.996094-5.738282 16.3125-8.890625.003907-.003907.007813-.007813.015626-.011719 5.316406-3.15625 10.511718-6.496094 15.574218-10.019531h.003906v-20zm0 0" fill="#e0734a"/><path d="m209.398438 291.882812h93.203124v39.429688h-93.203124zm0 0" fill="#5fd4e3"/><g fill="#ffe4d1"><path d="m192.949219 194.140625s-6.808594-12.476563-20.433594-12.476563-23.273437 59.898438 20.433594 49.914063zm0 0"/><path d="m319.050781 194.140625s6.8125-12.476563 20.4375-12.476563c13.621094 0 23.273438 59.898438-20.4375 49.914063zm0 0"/><path d="m291.816406 252.460938h-71.632812v48.546874l35.816406 30.304688 35.847656-30.332031zm0 0"/></g><path d="m256 113.878906c-104.378906 0-84.417969 171.183594 0 171.183594 84.421875.003906 104.378906-171.183594 0-171.183594zm0 0" fill="#ffefe4"/><path d="m334.863281 316.976562-46.601562 50.183594-32.261719-35.847656 46.601562-39.429688zm0 0" fill="#69ebfc"/><path d="m177.136719 316.976562 46.601562 50.183594 32.261719-35.847656-46.601562-39.429688zm0 0" fill="#69ebfc"/><path d="m334.738281 152.382812c0-69.546874-50.046875-78.113281-78.871093-78.113281-28.828126 0-78.871094 8.566407-78.871094 78.113281 0 0-1.882813 51.074219 8.007812 51.074219 9.894532 0 18.042969-54.878906 18.042969-54.878906s22.394531-15.574219 52.820313-15.574219c30.425781 0 52.820312 15.574219 52.820312 15.574219s8.148438 54.878906 18.042969 54.878906c9.890625 0 8.007812-51.074219 8.007812-51.074219zm0 0" fill="#339"/><path d="m169.578125 149.40625s0-90.28125 86.171875-90.28125c86.851562 0 86.40625 90.28125 86.40625 90.28125zm0 0" fill="#ff8354"/><path d="m256.015625 128.085938c-70.277344 0-86.4375 21.320312-86.4375 21.320312s-.515625 21.828125 20.527344 30.703125c12.625 5.324219 33.011719-4.417969 65.929687-4.417969 30.570313 0 50.296875 10.324219 63.019532 5.535156 23.804687-8.957031 23.101562-31.820312 23.101562-31.820312s-15.859375-21.320312-86.140625-21.320312zm0 0" fill="#e0734a"/><path d="m365.574219 381.824219h-219.113281c-7.65625 0-13.867188 6.207031-13.867188 13.863281v84.644531c36.601562 20.175781 78.660156 31.671875 123.40625 31.671875 44.761719 0 86.832031-11.5 123.4375-31.691406v-84.625c0-7.65625-6.207031-13.863281-13.863281-13.863281zm0 0" fill="#f7ddca"/><path d="m379.4375 400.019531h-246.84375v-4.332031c0-7.65625 6.207031-13.863281 13.863281-13.863281h219.117188c7.65625 0 13.859375 6.207031 13.859375 13.863281v4.332031zm0 0" fill="#ffefe4"/><path d="m275.554688 439.960938h-9.503907l-8.78125-5.726563-7.273437 5.726563-7.273438-5.726563-6.242187 5.726563v-58.136719h39.074219zm0 0" fill="#ff8354"/><path d="m236.480469 381.824219h39.074219v18.195312h-39.074219zm0 0" fill="#ffac8c"/><path d="m379.4375 460.285156c-36.605469 20.195313-78.667969 31.714844-123.4375 31.714844-44.753906 0-86.804688-11.515625-123.40625-31.699219v20.003907c.210938.117187.414062.242187.625.355468.503906.277344 1.023438.539063 1.53125.8125 2.046875 1.105469 4.105469 2.183594 6.1875 3.234375.789062.398438 1.585938.785157 2.382812 1.175781 1.863282.914063 3.742188 1.8125 5.632813 2.683594.820313.378906 1.644531.753906 2.472656 1.125 1.960938.878906 3.9375 1.734375 5.921875 2.5625.820313.34375 1.636719.695313 2.460938 1.027344.957031.390625 1.917968.765625 2.875 1.144531 1.238281.484375 2.484375.957031 3.730468 1.421875.984376.367188 1.964844.742188 2.953126 1.09375 1.726562.621094 3.464843 1.21875 5.210937 1.804688 1.289063.433594 2.589844.851562 3.890625 1.261718 1.148438.367188 2.296875.726563 3.453125 1.078126 1.183594.359374 2.375.707031 3.570313 1.046874 1.03125.292969 2.070312.578126 3.105468.859376 1.238282.339843 2.476563.679687 3.722656 1 .929688.238281 1.863282.457031 2.796876.683593 2.367187.578125 4.746093 1.121094 7.140624 1.632813.875.1875 1.75.378906 2.632813.554687 1.410156.285157 2.824219.5625 4.242187.824219.808594.148438 1.621094.289062 2.4375.433594 4.953126.863281 9.953126 1.589844 15.003907 2.167968.699219.082032 1.398437.164063 2.101562.238282 1.582031.167968 3.171875.324218 4.765625.460937.632813.054688 1.265625.101563 1.898438.152344 5.257812.417969 10.5625.679687 15.90625.78125.648437.011719 1.300781.023437 1.949218.03125h5.605469c.472657-.003906.945313-.015625 1.417969-.023437 2.84375-.046876 5.671875-.136719 8.492188-.277344.386718-.019532.777343-.035156 1.164062-.054688 3.066406-.164062 6.121094-.375 9.15625-.648437.066406-.003907.128906-.007813.195312-.011719 6.464844-.582031 12.863282-1.40625 19.179688-2.457031.011719-.003907.023438-.003907.03125-.007813 2.972656-.496094 5.925781-1.050781 8.863281-1.648437.503907-.101563 1.003907-.210938 1.503907-.316407 2.476562-.519531 4.945312-1.074218 7.394531-1.667968.617187-.148438 1.234375-.296875 1.847656-.449219 2.425781-.605469 4.832031-1.246094 7.226563-1.917969.53125-.148437 1.0625-.289062 1.589843-.441406 2.851563-.820312 5.683594-1.675781 8.492188-2.589844.023437-.007812.046875-.015625.070312-.023437 2.960938-.964844 5.898438-1.984375 8.8125-3.054688.160157-.058593.320313-.125.484375-.183593 2.574219-.953126 5.128906-1.949219 7.667969-2.980469.714844-.292969 1.429687-.597657 2.144531-.898438 1.992188-.832031 3.976563-1.683593 5.945313-2.566406.832031-.375 1.664062-.753906 2.492187-1.132813 1.867188-.863281 3.71875-1.746093 5.5625-2.648437.820313-.402344 1.640625-.800781 2.457032-1.210937 1.996093-1.003907 3.972656-2.042969 5.933593-3.097657.597657-.320312 1.199219-.625 1.792969-.949219.242188-.132812.476562-.277343.714844-.410156v-20zm0 0" fill="#edd4c2"/></svg>