<?xml version="1.0" encoding="iso-8859-1"?>
<!-- Generator: Adobe Illustrator 19.0.0, SVG Export Plug-In . SVG Version: 6.00 Build 0)  -->
<svg version="1.1" id="Capa_1" xmlns="http://www.w3.org/2000/svg" xmlns:xlink="http://www.w3.org/1999/xlink" x="0px" y="0px"
	 viewBox="0 0 512 512" style="enable-background:new 0 0 512 512;" xml:space="preserve">
<path style="fill:#FD003A;" d="M359.998,46.999v70.497L180.002,218.294l-34.5,19.2l-59.999,59.999c-4.199,4.501-10.8,5.7-16.199,3.3
	c-5.7-2.399-9.3-7.798-9.3-13.799v-44.999h-15c-24.9,0-44.999-20.101-44.999-44.999V46.999C0.006,22.099,20.104,0,45.005,0h269.994
	C339.899,0,359.998,22.099,359.998,46.999z"/>
<path style="fill:#E50027;" d="M359.998,46.999v70.497L180.002,218.294V0h134.997C339.899,0,359.998,22.099,359.998,46.999z"/>
<g>
	<path style="fill:#CAE8F9;" d="M270,76.998c0,8.399-6.599,15-15,15H75.004c-8.401,0-15-6.601-15-15c0-8.401,6.599-15,15-15H255
		C263.401,61.999,270,68.598,270,76.998z"/>
	<path style="fill:#CAE8F9;" d="M151.057,151.997H75.004c-8.291,0-15-6.709-15-15c0-8.291,6.709-15,15-15h76.053
		c8.291,0,15,6.709,15,15C166.057,145.288,159.348,151.997,151.057,151.997z"/>
</g>
<path style="fill:#B7E0F6;" d="M270,76.998c0,8.399-6.599,15-15,15h-74.998V61.999H255C263.401,61.999,270,68.598,270,76.998z"/>
<path style="fill:#17ACE8;" d="M511.995,226.995v179.996c0,24.898-20.1,44.999-44.999,44.999h-15v44.999c0,6-3.6,11.4-9.3,13.799
	c-5.4,2.401-12.001,1.201-16.199-3.3l-55.8-55.498H197.001c-24.9,0-44.999-20.101-44.999-44.999V276.493l179.996-75.597l44.999-18.9
	h89.998C491.896,181.996,511.995,202.095,511.995,226.995z"/>
<path style="fill:#1689FC;" d="M511.995,226.995v179.996c0,24.898-20.1,44.999-44.999,44.999h-15v44.999c0,6-3.6,11.4-9.3,13.799
	c-5.4,2.401-12.001,1.201-16.199-3.3l-55.8-55.498h-38.698V200.896l44.999-18.9h89.998
	C491.896,181.996,511.995,202.095,511.995,226.995z"/>
<path style="fill:#B7E0F6;" d="M436.996,271.994h-76.053c-8.291,0-15-6.709-15-15s6.709-15,15-15h76.053c8.291,0,15,6.709,15,15
	C451.996,265.285,445.287,271.994,436.996,271.994z"/>
<path style="fill:#CAE8F9;" d="M451.996,316.993c0,8.399-6.599,15-15,15H257c-8.401,0-15-6.601-15-15c0-8.401,6.599-15,15-15
	h179.996C445.397,301.994,451.996,308.592,451.996,316.993z"/>
<path style="fill:#B7E0F6;" d="M451.996,316.993c0,8.399-6.599,15-15,15H331.998v-29.999h104.998
	C445.397,301.994,451.996,308.592,451.996,316.993z"/>
<path style="fill:#CAE8F9;" d="M451.996,376.992c0,8.399-6.599,15-15,15H227.001c-8.401,0-15-6.601-15-15c0-8.401,6.599-15,15-15
	h209.996C445.397,361.992,451.996,368.591,451.996,376.992z"/>
<path style="fill:#FEDB41;" d="M255.901,61.999H255c-74.097,0.3-134.396,59.999-134.997,134.096
	c-0.3,74.399,59.699,135.297,134.096,135.898H255c74.097-0.3,134.396-59.999,134.997-134.098
	C390.298,123.497,330.299,62.598,255.901,61.999z"/>
<path style="fill:#FEA832;" d="M389.997,197.895c-0.6,74.099-60.9,133.798-134.997,134.098V61.999h0.901
	C330.299,62.598,390.298,123.497,389.997,197.895z"/>
<g>
	<path style="fill:#994C0F;" d="M270,136.997v59.999c0,8.399-6.599,15-15,15c-8.401,0-15-6.601-15-15v-59.999
		c0-8.401,6.599-15,15-15C263.401,121.997,270,128.596,270,136.997z"/>
	<path style="fill:#994C0F;" d="M270,256.994c0,8.399-6.599,15-15,15c-8.401,0-15-6.601-15-15c0-8.401,6.599-15,15-15
		C263.401,241.995,270,248.594,270,256.994z"/>
</g>
<g>
	<path style="fill:#713708;" d="M270,256.994c0,8.399-6.599,15-15,15v-29.999C263.401,241.995,270,248.594,270,256.994z"/>
	<path style="fill:#713708;" d="M270,136.997v59.999c0,8.399-6.599,15-15,15v-89.998C263.401,121.997,270,128.596,270,136.997z"/>
</g>
<path style="fill:#B7E0F6;" d="M451.996,376.992c0,8.399-6.599,15-15,15H331.998v-29.999h104.998
	C445.397,361.992,451.996,368.591,451.996,376.992z"/>
<g>
</g>
<g>
</g>
<g>
</g>
<g>
</g>
<g>
</g>
<g>
</g>
<g>
</g>
<g>
</g>
<g>
</g>
<g>
</g>
<g>
</g>
<g>
</g>
<g>
</g>
<g>
</g>
<g>
</g>
</svg>
