<svg enable-background="new 0 0 140 140" height="512" viewBox="0 0 140 140" width="512" xmlns="http://www.w3.org/2000/svg"><circle cx="70" cy="70" fill="#45b39c" r="64"/><path d="m26.0493584 100.3883209.0799561.0800171c.0599365.0599976.1099854.1199951.1700439.1699829l32.3282471 32.3339233c3.692749.6626587 7.4888878 1.027771 11.3724327 1.027771 35.3461914 0 64.0000076-28.6538086 64.0000076-64 0-3.8847656-.3653564-7.6820679-1.0284424-11.3760376l-19.0623856-19.0656738-.0098877.0100098c-.6300049-.7000122-1.5300293-1.1400146-2.5500488-1.1400146h-9.9699707l-15.3199463-15.329958h-16.3100586l-4.1500244-4.1500244-8.7199669 7.1699829 18.049923 18.0599995v6.1400146l-10.7600098-10.75c-.629879-.7000122-1.5399132-1.1400146-2.5499229-1.1400146h-32.9699707c-1.9100342 0-3.4500732 1.5400391-3.4500732 3.4500122v56.2399902c0 .8699951.3300781 1.6500244.8601074 2.2600098z" opacity=".1"/><path d="m61.6159058 38.4246216h-32.9664574c-1.9079723 0-3.4547958 1.546772-3.4547958 3.4547958v56.241188c0 1.9079742 1.5468235 3.4547501 3.4547958 3.4547501h32.9664574c1.9079704 0 3.4547958-1.5467758 3.4547958-3.4547501v-56.241188c0-1.9080238-1.5468254-3.4547958-3.4547958-3.4547958z" fill="#4d5c7d"/><path d="m28.266506 46.587585h33.732342v46.824806h-33.732342z" fill="#e56353"/><g fill="#474c5b"><path d="m39.943234 42.19701h8.297265v1.734883h-8.297265z"/><path d="m50.4792252 42.1970024c-.4109344 0-.744133.333149-.744133.7440834 0 .4108849.3331985.74403.744133.74403s.74403-.3331451.74403-.74403c0-.4109344-.3330956-.7440834-.74403-.7440834z"/><path d="m46.2941704 95.5338974h-2.3229904c-.4678612 0-.8471718.3792572-.8471718.8471222v2.323143c0 .4678116.3793106.8471146.8471718.8471146h2.3229904c.467865 0 .8471718-.379303.8471718-.8471146v-2.323143c0-.467865-.3793068-.8471222-.8471718-.8471222z"/></g><path d="m111.3504639 38.4246216h-32.9664536c-1.9079742 0-3.4547958 1.546772-3.4547958 3.4547958v56.241188c0 1.9079742 1.5468216 3.4547501 3.4547958 3.4547501h32.9664536c1.9079742 0 3.4548035-1.5467758 3.4548035-3.4547501v-56.241188c-.0000001-1.9080238-1.5468293-3.4547958-3.4548035-3.4547958z" fill="#4d5c7d"/><path d="m78.001068 46.587585h33.732342v46.824806h-33.732342z" fill="#e6e9ef"/><g fill="#474c5b"><path d="m89.677795 42.19701h8.297265v1.734883h-8.297265z"/><path d="m100.2137909 42.1970024c-.4109344 0-.744133.333149-.744133.7440834 0 .4108849.3331985.74403.744133.74403s.7440262-.3331451.7440262-.74403c0-.4109344-.3330918-.7440834-.7440262-.7440834z"/><path d="m96.0287323 95.5338974h-2.3229904c-.4678574 0-.847168.3792572-.847168.8471222v2.323143c0 .4678116.3793106.8471146.847168.8471146h2.3229904c.467865 0 .8471756-.379303.8471756-.8471146v-2.323143c0-.467865-.3793106-.8471222-.8471756-.8471222z"/></g><path d="m103.6736755 69.4116135c0 4.8655548-3.9430771 8.8064346-8.8064346 8.8064346-2.7233887 0-5.158371-1.2350998-6.7721558-3.176918-1.2703323-1.5257111-2.0342789-3.4873505-2.0342789-5.6295166 0-4.8633575 3.9430695-8.8064346 8.8064346-8.8064346 2.1047363 0 4.0377579.7397385 5.5524521 1.9748383 1.9858552 1.6115798 3.2539826 4.072975 3.2539826 6.8315963z" fill="#f4c85b"/><ellipse cx="94.868" cy="69.413" fill="#efb250" rx="6.766" ry="6.766" transform="matrix(.987 -.16 .16 .987 -9.894 16.092)"/><path d="m98.2007217 69.8436127c-.1355972-.1792603-.3079529-.3286285-.5124817-.4481354-.1539841-.0919342-.3263397-.1654587-.5170746-.2206268.3470001-.1700592.6044083-.3952713.7767639-.6733475.1700592-.2780685.2550888-.5745316.2550888-.8916779 0-.3378143-.0965271-.6618576-.289566-.9720993-.1930466-.3102417-.4596252-.5400543-.7997437-.6894379-.2573853-.1149063-.5791321-.1838531-.9652176-.2114258v-.9192505h-.9698181v.9054642h-.489502v-.9054642h-.9674988v.9054642h-.411377v-.0023041h-1.0824049v.8686829h.7629776v5.6396179h-.7629776v.8686829h.7629776v.0023041h.7308044v.9077606h.9674988v-.9077606h.489502v.9077606h.9698181v-.91465c.3217316-.0160828.6044083-.0551682.8457108-.1172028.3217468-.0804443.592926-.20224.8066483-.3631134.2137222-.1608658.3952713-.3906784.5400543-.6871338.1470795-.2964554.2206268-.6181946.2206268-.9629211 0-.4297485-.1218109-.80204-.3608094-1.1191863zm-4.2331466-3.2495575h1.4730911c.5308685 0 .9054642.0344772 1.1214905.1034241.2183228.0689392.3860779.1953354.5032883.3814774.1172104.1861496.1769638.4021759.1769638.6480789 0 .2573853-.0620575.4711151-.1884537.6434708-.1263962.1700745-.3125381.2941666-.5607452.3677063-.188446.057457-.4986877.0850296-.9307327.0850296h-1.594902v-2.2291871zm3.4356842 4.9892425c-.0965118.1792526-.2206039.3171463-.3722916.4090652-.1516724.0942307-.337822.1608658-.5630341.2022324-.1286926.0229874-.3493195.0344772-.6641617.0344772h-1.8361969v-2.5348434h1.7052078c.468811 0 .8296204.0413666 1.0801163.1218109.1493759.0505524.2780685.1217957.390686.2137222.0735321.0620575.137886.1332932.1953354.2160263.1401825.2022324.2114258.4412384.2114258.7170105.0000001.2344208-.0505523.4412385-.147087.6204987z" fill="#cc903a"/><path d="m97.984726 69.8436127c-.1355972-.1792603-.3079529-.3286285-.5124817-.4481354-.1539841-.0919342-.3263397-.1654587-.5170746-.2206268.3470078-.1700592.6044083-.3952713.7767715-.6733475.1700592-.2780685.2550888-.5745316.2550888-.8916779 0-.3378143-.0965347-.6618576-.2895737-.9720993-.1930466-.3102417-.4596252-.5400543-.7997437-.6894379-.2573853-.1149063-.5791321-.1838531-.96521-.2114258v-.9192505h-.9698181v.9054642h-.489502v-.9054642h-.9675064v.9054642h-.411377v-.0023041h-1.0824051v.8686829h.7629776v5.6396179h-.7629776v.8686829h.7629776v.0023041h.7308044v.9077606h.9675064v-.9077606h.489502v.9077606h.9698181v-.91465c.3217239-.0160828.6044083-.0551682.8457031-.1172028.3217468-.0804443.592926-.20224.8066483-.3631134.2137222-.1608658.3952713-.3906784.5400543-.6871338.1470871-.2964554.2206268-.6181946.2206268-.9629211.0000003-.4297485-.1218106-.80204-.360809-1.1191863zm-4.2331467-3.2495575h1.4730911c.5308685 0 .9054642.0344772 1.1214905.1034241.2183228.0689392.3860855.1953354.5032883.3814774.1172104.1861496.1769638.4021759.1769638.6480789 0 .2573853-.0620575.4711151-.1884537.6434708-.1263885.1700745-.3125381.2941666-.5607376.3677063-.1884537.057457-.4986954.0850296-.9307404.0850296h-1.594902zm3.4356918 4.9892425c-.0965195.1792526-.2206116.3171463-.3722992.4090652-.1516724.0942307-.3378143.1608658-.5630264.2022324-.1287003.0229874-.3493195.0344772-.6641693.0344772h-1.8361969v-2.5348434h1.7052078c.468811 0 .8296204.0413666 1.0801239.1218109.1493683.0505524.2780609.1217957.3906784.2137222.0735321.0620575.137886.1332932.1953354.2160263.1401825.2022324.2114258.4412384.2114258.7170105 0 .2344208-.0505524.4412385-.1470795.6204987z" fill="#fcd462"/><g fill="#fff" opacity=".15"><path d="m98.8128433 63.9141922-9.4448929 9.4427032c-.2333679-.3258362-.438118-.6736908-.6120529-1.0391541l9.0155945-9.0177956c.3676605.1739236.7155228.3808748 1.0413513.6142465z"/><path d="m100.9792328 66.5098953-9.0155869 9.0155945c-.7529526-.3566589-1.4266434-.8498306-1.9946594-1.4464569l9.5659943-9.5637894c.5966263.5680161 1.0875931 1.2417069 1.444252 1.9946518z"/></g><path d="m53.9391136 69.4116135c0 4.8655548-3.9430771 8.8064346-8.8064384 8.8064346-2.7233887 0-5.1583672-1.2350998-6.7721481-3.176918-1.2703323-1.5257111-2.0342865-3.4873505-2.0342865-5.6295166 0-4.8633575 3.9430771-8.8064346 8.8064346-8.8064346 2.1047401 0 4.0377579.7397385 5.5524521 1.9748383 1.9858551 1.6115798 3.2539863 4.072975 3.2539863 6.8315963z" fill="#f4c85b"/><ellipse cx="45.133" cy="69.413" fill="#efb250" rx="6.766" ry="6.766" transform="matrix(.987 -.16 .16 .987 -10.536 8.126)"/><path d="m48.4661598 69.8436127c-.1355972-.1792603-.3079567-.3286285-.5124817-.4481354-.1539841-.0919342-.3263435-.1654587-.5170784-.2206268.3470078-.1700592.6044083-.3952713.7767715-.6733475.1700592-.2780685.2550888-.5745316.2550888-.8916779 0-.3378143-.0965347-.6618576-.2895699-.9720993-.1930466-.3102417-.4596252-.5400543-.7997437-.6894379-.2573891-.1149063-.5791321-.1838531-.9652138-.2114258v-.9192505h-.9698181v.9054642h-.489502v-.9054642h-.9675064v.9054642h-.4113731v-.0023041h-1.0824089v.8686829h.7629814v5.6396179h-.7629814v.8686829h.7629814v.0023041h.7308006v.9077606h.9675064v-.9077606h.489502v.9077606h.9698181v-.91465c.3217278-.0160828.6044083-.0551682.8457069-.1172028.321743-.0804443.5929222-.20224.8066444-.3631134.213726-.1608658.3952713-.3906784.5400581-.6871338.1470833-.2964554.220623-.6181946.220623-.9629211.0000003-.4297485-.1218068-.80204-.3608052-1.1191863zm-4.2331505-3.2495575h1.4730949c.5308647 0 .9054642.0344772 1.1214867.1034241.2183266.0689392.3860855.1953354.5032921.3814774.1172066.1861496.17696.4021759.17696.6480789 0 .2573853-.0620537.4711151-.1884499.6434708-.1263924.1700745-.312542.2941666-.5607414.3677063-.1884499.057457-.4986916.0850296-.9307404.0850296h-1.594902zm3.4356919 4.9892425c-.0965195.1792526-.2206116.3171463-.3722954.4090652-.1516724.0942307-.3378181.1608658-.5630302.2022324-.1286964.0229874-.3493233.0344772-.6641655.0344772h-1.8362007v-2.5348434h1.7052078c.468811 0 .8296204.0413666 1.0801239.1218109.1493683.0505524.2780647.1217957.3906822.2137222.0735283.0620575.1378822.1332932.1953354.2160263.1401825.2022324.2114258.4412384.2114258.7170105 0 .2344208-.0505524.4412385-.1470833.6204987z" fill="#cc903a"/><path d="m48.250164 69.8436127c-.1355972-.1792603-.3079567-.3286285-.5124779-.4481354-.1539841-.0919342-.3263435-.1654587-.5170784-.2206268.3470039-.1700592.6044083-.3952713.7767677-.6733475.1700592-.2780685.2550888-.5745316.2550888-.8916779 0-.3378143-.0965309-.6618576-.289566-.9720993-.1930504-.3102417-.4596252-.5400543-.7997437-.6894379-.2573891-.1149063-.5791359-.1838531-.9652176-.2114258v-.9192505h-.9698181v.9054642h-.489502v-.9054642h-.9675026v.9054642h-.411377v-.0023041h-1.0824089v.8686829h.7629814v5.6396179h-.7629814v.8686829h.7629814v.0023041h.7308044v.9077606h.9675026v-.9077606h.489502v.9077606h.9698181v-.91465c.3217278-.0160828.6044083-.0551682.8457069-.1172028.3217468-.0804443.5929222-.20224.8066483-.3631134.2137222-.1608658.3952713-.3906784.5400543-.6871338.1470833-.2964554.220623-.6181946.220623-.9629211.0000002-.4297485-.1218069-.80204-.3608053-1.1191863zm-4.2331505-3.2495575h1.4730949c.5308685 0 .9054642.0344772 1.1214867.1034241.2183266.0689392.3860855.1953354.5032921.3814774.1172066.1861496.17696.4021759.17696.6480789 0 .2573853-.0620537.4711151-.188446.6434708-.1263962.1700745-.3125458.2941666-.5607452.3677063-.1884499.057457-.4986916.0850296-.9307404.0850296h-1.594902v-2.2291871zm3.4356919 4.9892425c-.0965157.1792526-.2206116.3171463-.3722954.4090652-.1516724.0942307-.3378181.1608658-.5630302.2022324-.1286964.0229874-.3493195.0344772-.6641617.0344772h-1.8362045v-2.5348434h1.7052078c.4688148 0 .8296204.0413666 1.0801239.1218109.1493683.0505524.2780647.1217957.390686.2137222.0735245.0620575.1378822.1332932.1953354.2160263.1401825.2022324.211422.4412384.211422.7170105 0 .2344208-.0505524.4412385-.1470833.6204987z" fill="#fcd462"/><g fill="#fff" opacity=".15"><path d="m49.0782814 63.9141922-9.4448929 9.4427032c-.2333717-.3258362-.438118-.6736908-.6120529-1.0391541l9.0155907-9.0177956c.3676643.1739236.7155227.3808748 1.0413551.6142465z"/><path d="m51.2446709 66.5098953-9.0155907 9.0155945c-.7529449-.3566589-1.4266396-.8498306-1.9946556-1.4464569l9.5659904-9.5637894c.5966301.5680161 1.0875969 1.2417069 1.4442559 1.9946518z"/></g><path d="m65.5977402 18.94944-8.7229119 7.1715736 8.7229119 7.1717186v-4.1534767h20.4630661v-6.0363388h-20.4630661z" fill="#4d5c7d"/><path d="m77.3378906 119.9786453 8.7229157-7.1715698-8.7229157-7.1717224v4.1534805h-20.4630623v6.0363388h20.4630623z" fill="#4d5c7d"/></svg>