<svg height="512pt" viewBox="0 0 512 512" width="512pt" xmlns="http://www.w3.org/2000/svg" xmlns:xlink="http://www.w3.org/1999/xlink"><linearGradient id="a" gradientUnits="userSpaceOnUse" x1="0" x2="512" y1="256" y2="256"><stop offset="0" stop-color="#00f38d"/><stop offset="1" stop-color="#009eff"/></linearGradient><path d="m512 256c0 141.386719-114.613281 256-256 256s-256-114.613281-256-256 114.613281-256 256-256 256 114.613281 256 256zm0 0" fill="url(#a)"/><g fill="#fff"><path d="m365.679688 207.339844c-1.574219-59.511719-50.476563-107.441406-110.363282-107.441406-27.5 0-53.847656 10.171874-74.191406 28.644531-17.527344 15.917969-29.375 36.84375-34.011719 59.765625-16.574219 3.566406-31.699219 12.136718-43.402343 24.753906-14.296876 15.414062-22.171876 35.488281-22.171876 56.523438 0 39.765624 28.0625 73.089843 65.421876 81.230468 3.40625.546875 6.816406 1.230469 8.179687 1.230469v-27.261719c-2.726563-.164062-5.453125-.90625-8.179687-2.226562-22.148438-7.425782-38.160157-28.355469-38.160157-52.972656 0-28.929688 22.550781-53.394532 51.34375-55.699219l11.3125-.90625 1.160157-11.289063c4.359374-42.492187 39.914062-74.535156 82.699218-74.535156 45.84375 0 83.144532 37.296875 83.144532 83.140625v23.851563h19.078124c25.179688 0 45.660157 20.480468 45.660157 45.660156 0 22.621094-16.542969 41.445312-38.164063 45.03125v27.203125c36.699219-3.765625 65.421875-34.558594 65.421875-72.234375.003907-37.457032-28.386719-68.40625-64.777343-72.46875zm0 0"/><path d="m311.207031 354.675781v-110.304687h-30v110.304687l-12.558593-12.554687-21.210938 21.214844 48.769531 48.765624 48.769531-48.765624-21.210937-21.214844zm0 0"/><path d="m258.429688 290.667969-48.769532-48.769531-48.769531 48.769531 21.210937 21.214843 12.558594-12.558593v110.648437h30v-110.648437l12.554688 12.558593zm0 0"/></g></svg>